<svg width="1920" height="312" viewBox="0 0 1920 312" fill="none" xmlns="http://www.w3.org/2000/svg">
<rect width="1920" height="312" fill="url(#paint0_linear)"/>
<mask id="mask0" mask-type="alpha" maskUnits="userSpaceOnUse" x="0" y="0" width="1920" height="312">
<rect width="1920" height="312" fill="white"/>
</mask>
<g mask="url(#mask0)">
<path opacity="0.15" fill-rule="evenodd" clip-rule="evenodd" d="M-172.213 64.8249C-172.213 64.8249 184.139 179.775 620.575 76.4451C1057.01 -26.8847 1405.19 114.86 1572.27 140.611C1739.35 166.363 1856.01 145.111 1975.22 127.124C2094.44 109.137 2395.23 -195.39 2397.55 -197.287C2399.87 -199.181 -625.632 -167.188 -625.632 -167.188L-172.213 64.8249Z" fill="white"/>
<path opacity="0.1" fill-rule="evenodd" clip-rule="evenodd" d="M2664.4 52.7247C2664.4 52.7247 2308.28 160.21 1871.65 63.1157C1435.02 -33.9786 1087.13 98.619 920.095 122.643C753.064 146.667 636.368 126.682 517.128 109.753C397.878 92.8235 96.5085 -192.708 94.1827 -194.488C91.8566 -196.264 3117.36 -164.389 3117.36 -164.389L2664.4 52.7247Z" fill="white"/>
<path fill-rule="evenodd" clip-rule="evenodd" d="M110.201 86.065C198.26 110.697 507.515 184.681 904.374 76.4361C1301.23 -31.8088 1581.95 77.992 1802.25 103.144C2022.54 128.295 2285.8 116.253 2425 86.954C2564.2 57.6546 2572.62 -224.553 2574.24 -226.394C2575.86 -228.23 -426.861 -119.864 -426.861 -119.864C-426.861 -119.864 22.1426 61.4333 110.201 86.065Z" fill="white"/>
<g opacity="0.15">
<path d="M175.202 201.38C173.098 209.952 179.517 214.411 179.587 214.465C179.475 214.653 177.411 218.265 173.774 221.657C170.629 224.59 167.402 227.49 163.678 226.725C160.018 225.974 159.437 223.395 155.273 222.455C151.111 221.516 149.256 223.397 145.773 222.76C142.16 222.093 140.42 217.614 139.009 213.667C136.127 205.594 135.824 191.974 142.821 184.405C146.297 180.646 151.245 178.886 155.881 179.858C159.411 180.581 162.083 183.855 164.231 184.34C166.377 184.824 171.181 182.695 175.303 184.096C177.057 184.573 181.865 186.364 183.822 191.949C183.522 192.056 176.963 194.213 175.202 201.38L175.202 201.38ZM173.712 178.827C176.22 176.866 178.347 173.827 178.841 170.438C176.075 169.935 172.31 170.97 169.738 172.916C167.439 174.634 165.035 177.671 164.624 181.01C167.613 181.944 171.203 180.79 173.712 178.827" fill="white"/>
</g>
<g opacity="0.07">
<path d="M713.184 207.366C715.663 213.353 721.428 213.351 721.493 213.355C721.508 213.513 721.852 216.524 721.161 220.056C720.565 223.11 719.905 226.179 717.353 227.267C714.846 228.336 713.377 227.039 710.488 228.205C707.599 229.371 707.313 231.262 704.96 232.327C702.517 233.428 699.531 231.477 696.972 229.707C691.74 226.086 685.629 218.086 686.502 210.669C686.937 206.985 689.118 203.882 692.303 202.539C694.721 201.506 697.739 202.352 699.229 201.75C700.718 201.149 702.653 197.886 705.719 197.013C706.972 196.57 710.615 195.645 714.213 198.165C714.081 198.353 711.113 202.36 713.184 207.366L713.184 207.366ZM702.477 194.529C703.117 192.318 703.061 189.624 701.881 187.397C700.013 188.244 698.221 190.423 697.536 192.651C696.914 194.629 696.804 197.438 698.013 199.601C700.2 198.918 701.837 196.74 702.477 194.529" fill="white"/>
</g>
<g opacity="0.1">
<path d="M1190.57 163.381C1186.88 169.624 1190.84 174.7 1190.88 174.76C1190.75 174.88 1188.27 177.224 1184.62 179.011C1181.46 180.557 1178.24 182.057 1175.5 180.547C1172.82 179.064 1172.98 176.891 1169.94 175.137C1166.91 173.384 1165.01 174.414 1162.43 173.064C1159.76 171.66 1159.47 167.707 1159.31 164.253C1158.98 157.191 1161.99 146.385 1169.28 142.124C1172.89 140.008 1177.19 139.825 1180.59 141.72C1183.18 143.149 1184.49 146.379 1186.05 147.284C1187.62 148.188 1191.89 147.679 1194.78 149.787C1196.04 150.59 1199.37 153.171 1199.57 158.048C1199.31 158.06 1193.66 158.163 1190.57 163.381L1190.57 163.381ZM1194.79 145.248C1197.22 144.313 1199.61 142.436 1200.81 139.887C1198.76 138.817 1195.57 138.716 1193.09 139.623C1190.88 140.417 1188.27 142.225 1187.15 144.756C1189.27 146.219 1192.36 146.184 1194.79 145.248" fill="white"/>
</g>
<g opacity="0.25">
<path d="M1732.39 221.09C1735.02 233.493 1746.2 235.549 1746.33 235.578C1746.3 235.888 1745.87 241.803 1743.24 248.351C1740.97 254.012 1738.57 259.68 1733.23 260.862C1727.98 262.023 1725.6 259.002 1719.57 260.214C1713.54 261.425 1712.3 264.96 1707.35 266.168C1702.21 267.413 1697.13 262.593 1692.81 258.275C1683.98 249.441 1675.04 231.869 1679.44 217.911C1681.62 210.98 1686.98 205.791 1693.65 204.346C1698.72 203.223 1704.26 205.927 1707.37 205.302C1710.48 204.677 1715.42 199.093 1721.69 198.508C1724.28 198.104 1731.68 197.625 1737.74 203.758C1737.42 204.074 1730.2 210.72 1732.39 221.09L1732.39 221.09ZM1716.3 192.572C1718.35 188.548 1719.22 183.345 1717.74 178.639C1713.81 179.602 1709.54 183.153 1707.4 187.193C1705.48 190.777 1704.24 196.142 1705.8 200.733C1710.29 200.201 1714.25 196.597 1716.3 192.572" fill="white"/>
</g>
<g opacity="0.2">
<path d="M1848.36 193.822C1846.33 199.763 1850.57 203.328 1850.61 203.371C1850.52 203.496 1848.83 205.926 1846.05 208.099C1843.64 209.978 1841.18 211.83 1838.6 211.052C1836.06 210.288 1835.82 208.425 1832.94 207.496C1830.07 206.568 1828.64 207.783 1826.22 207.111C1823.71 206.411 1822.78 203.127 1822.03 200.241C1820.52 194.339 1821.19 184.669 1826.61 179.748C1829.31 177.305 1832.91 176.37 1836.12 177.352C1838.56 178.087 1840.24 180.576 1841.72 181.055C1843.21 181.534 1846.73 180.328 1849.55 181.582C1850.76 182.031 1854.03 183.604 1855.05 187.684C1854.84 187.741 1850.07 188.855 1848.36 193.822L1848.36 193.822ZM1848.77 177.748C1850.66 176.517 1852.36 174.498 1852.93 172.128C1851.01 171.597 1848.28 172.093 1846.34 173.308C1844.61 174.381 1842.72 176.381 1842.21 178.72C1844.26 179.571 1846.87 178.98 1848.77 177.748" fill="white"/>
</g>
<path opacity="0.07" fill-rule="evenodd" clip-rule="evenodd" d="M91.9331 260.278C105.476 260.54 116.231 253.651 113.853 247.364C111.475 241.077 98.9168 239.618 87.5962 240.276C76.2755 240.934 71 245.065 71 250.716C71 256.367 78.3904 260.015 91.9331 260.278Z" fill="#456FFF"/>
</g>
<defs>
<linearGradient id="paint0_linear" x1="-92.0938" y1="342.514" x2="2223.26" y2="342.514" gradientUnits="userSpaceOnUse">
<stop stop-color="#6039FF"/>
<stop offset="0.545791" stop-color="#156EFF"/>
<stop offset="0.87291" stop-color="#19DFFA"/>
<stop offset="1" stop-color="#7AFFEB"/>
<stop offset="1" stop-color="#7AFFEB"/>
</linearGradient>
</defs>
</svg>
