<svg width="1920" height="646" viewBox="0 0 1920 646" fill="none" xmlns="http://www.w3.org/2000/svg">
<rect width="1920" height="646" fill="url(#paint0_linear)"/>
<mask id="mask0" mask-type="alpha" maskUnits="userSpaceOnUse" x="0" y="0" width="1920" height="646">
<rect width="1920" height="646" fill="white"/>
</mask>
<g mask="url(#mask0)">
<path fill-rule="evenodd" clip-rule="evenodd" d="M-143.75 612.077C-143.75 612.077 209.031 393.655 648.562 576.109C1088.09 758.562 1431.88 490.901 1598.15 440.369C1764.42 389.837 1881.71 426.867 2001.45 457.835C2121.2 488.802 2431.26 1044.6 2433.64 1048.06C2436.02 1051.5 -590 1048.06 -590 1048.06L-143.75 612.077Z" fill="white"/>
<path opacity="0.25" fill-rule="evenodd" clip-rule="evenodd" d="M-23.75 563.608C-23.75 563.608 329.031 345.187 768.562 527.64C1208.09 710.094 1551.88 442.432 1718.15 391.9C1884.42 341.369 2001.71 378.399 2121.45 409.367C2241.2 440.334 2551.26 996.133 2553.64 999.588C2556.02 1003.04 -470 999.588 -470 999.588L-23.75 563.608Z" fill="white"/>
<path opacity="0.2" fill-rule="evenodd" clip-rule="evenodd" d="M-243.799 543.715C-243.799 543.715 153.515 351.188 550.374 562.514C947.233 773.84 1346.25 531.821 1522.19 493.102C1698.13 454.384 1806.55 499.205 1918.72 538.179C2030.89 577.152 2218.62 1150.14 2220.24 1153.73C2221.86 1157.31 -780.861 945.75 -780.861 945.75L-243.799 543.715Z" fill="white"/>
<g opacity="0.15">
<path d="M595.572 343.456C595.639 350.704 601.93 353.116 602 353.147C601.947 353.317 600.995 356.584 598.685 359.959C596.689 362.877 594.617 365.784 591.353 365.844C588.146 365.904 587.115 363.943 583.448 363.943C579.783 363.943 578.637 365.784 575.601 365.904C572.451 366.023 570.052 362.748 568.039 359.841C563.926 353.895 560.782 343.038 565.003 335.709C567.1 332.07 570.847 329.765 574.914 329.706C578.007 329.647 580.927 331.787 582.819 331.787C584.709 331.787 588.257 329.213 591.988 329.591C593.549 329.656 597.933 330.222 600.748 334.342C600.521 334.483 595.517 337.396 595.572 343.456V343.456ZM589.544 325.657C591.217 323.633 592.343 320.814 592.035 318.01C589.625 318.107 586.709 319.616 584.98 321.64C583.43 323.432 582.073 326.3 582.439 329.049C585.126 329.257 587.872 327.683 589.544 325.657" fill="white"/>
</g>
<g opacity="0.07">
<path d="M1350.92 121.457C1347.58 130.871 1354.24 136.604 1354.31 136.672C1354.16 136.871 1351.44 140.707 1346.99 144.12C1343.14 147.07 1339.21 149.976 1335.14 148.701C1331.14 147.447 1330.79 144.48 1326.25 142.96C1321.71 141.44 1319.42 143.35 1315.6 142.246C1311.65 141.094 1310.22 135.859 1309.1 131.26C1306.81 121.854 1308.04 106.491 1316.73 98.7506C1321.04 94.907 1326.77 93.4762 1331.83 95.086C1335.69 96.2923 1338.29 100.275 1340.64 101.059C1342.98 101.843 1348.58 99.9807 1353.02 102.017C1354.93 102.749 1360.09 105.299 1361.63 111.802C1361.28 111.89 1353.71 113.587 1350.92 121.457L1350.92 121.457ZM1351.85 95.9093C1354.88 93.981 1357.6 90.7979 1358.55 87.039C1355.52 86.1648 1351.19 86.911 1348.1 88.8144C1345.33 90.4923 1342.3 93.6436 1341.46 97.3551C1344.69 98.7386 1348.83 97.8392 1351.85 95.9093" fill="white"/>
</g>
<g opacity="0.15">
<path d="M1656.44 355.511C1658.68 359.289 1662.59 358.766 1662.63 358.762C1662.66 358.866 1663.17 360.849 1663.04 363.273C1662.93 365.369 1662.77 367.481 1661.14 368.44C1659.55 369.382 1658.43 368.647 1656.58 369.689C1654.74 370.73 1654.72 372.02 1653.23 372.945C1651.68 373.903 1649.47 372.869 1647.57 371.917C1643.69 369.97 1638.8 365.174 1638.69 360.135C1638.63 357.633 1639.82 355.361 1641.85 354.174C1643.38 353.265 1645.51 353.557 1646.46 353.019C1647.41 352.482 1648.41 350.126 1650.41 349.264C1651.21 348.855 1653.59 347.906 1656.27 349.265C1656.2 349.403 1654.56 352.351 1656.44 355.511L1656.44 355.511ZM1647.98 347.897C1648.2 346.361 1647.91 344.564 1646.9 343.182C1645.71 343.918 1644.71 345.537 1644.45 347.089C1644.22 348.468 1644.41 350.356 1645.43 351.692C1646.85 351.038 1647.75 349.434 1647.98 347.897" fill="white"/>
</g>
<g opacity="0.06">
<path d="M1905.97 138.611C1920.28 162.693 1945.15 159.358 1945.44 159.334C1945.6 159.999 1948.89 172.633 1948.04 188.084C1947.31 201.441 1946.31 214.9 1935.95 221.01C1925.78 227.014 1918.66 222.333 1906.89 228.971C1895.13 235.607 1895.03 243.831 1885.52 249.726C1875.65 255.828 1861.58 249.237 1849.47 243.174C1824.72 230.763 1793.53 200.199 1792.83 168.085C1792.48 152.136 1800.03 137.656 1812.96 130.096C1822.77 124.298 1836.3 126.158 1842.37 122.734C1848.44 119.313 1854.82 104.293 1867.53 98.8015C1872.66 96.1912 1887.83 90.1443 1904.87 98.8069C1904.42 99.687 1894.02 118.473 1905.97 138.611L1905.97 138.611ZM1852.04 90.0878C1853.47 80.2988 1851.61 68.8489 1845.17 60.0403C1837.62 64.7288 1831.2 75.0482 1829.58 84.9362C1828.09 93.7258 1829.31 105.76 1835.83 114.277C1844.86 110.106 1850.61 99.8813 1852.04 90.0878" fill="white"/>
</g>
<g opacity="0.07">
<path d="M177.602 155.067C174.665 167.036 183.626 173.261 183.723 173.337C183.568 173.598 180.686 178.642 175.608 183.377C171.217 187.471 166.712 191.521 161.512 190.453C156.403 189.403 155.592 185.803 149.779 184.492C143.968 183.181 141.378 185.806 136.515 184.916C131.47 183.986 129.042 177.732 127.072 172.221C123.048 160.951 122.624 141.935 132.393 131.368C137.246 126.12 144.154 123.663 150.626 125.02C155.556 126.029 159.286 130.601 162.285 131.277C165.281 131.953 171.987 128.98 177.743 130.938C180.191 131.603 186.903 134.104 189.635 141.9C189.217 142.051 180.061 145.061 177.602 155.067L177.602 155.067ZM175.521 123.581C179.023 120.842 181.992 116.6 182.682 111.869C178.82 111.167 173.564 112.612 169.972 115.328C166.763 117.726 163.407 121.967 162.833 126.628C167.006 127.932 172.019 126.321 175.521 123.581" fill="white"/>
</g>
<g opacity="0.15">
<path d="M90.0762 423.077C91.8068 427.553 96.0664 427.763 96.1146 427.768C96.123 427.884 96.3258 430.103 95.7562 432.665C95.2639 434.88 94.7246 437.104 92.8208 437.808C90.95 438.499 89.8866 437.495 87.732 438.244C85.5781 438.993 85.3345 440.367 83.5784 441.061C81.755 441.778 79.5813 440.24 77.7203 438.85C73.916 436.006 69.536 429.922 70.3063 424.52C70.6892 421.837 72.3533 419.644 74.7294 418.777C76.5335 418.109 78.7487 418.839 79.86 418.452C80.9706 418.066 82.4553 415.747 84.7355 415.22C85.6683 414.941 88.3762 414.396 90.9916 416.374C90.8911 416.508 88.6304 419.334 90.0762 423.077L90.0762 423.077ZM82.3819 413.281C82.8924 411.686 82.8963 409.71 82.0616 408.035C80.6675 408.587 79.3066 410.118 78.7626 411.725C78.2699 413.151 78.1415 415.205 78.998 416.833C80.6256 416.413 81.8717 414.878 82.3819 413.281" fill="white"/>
</g>
<g opacity="0.07">
<path d="M586.429 110.304C585.24 114.676 588.439 117.035 588.474 117.064C588.415 117.159 587.316 118.988 585.42 120.686C583.782 122.155 582.101 123.606 580.22 123.172C578.371 122.745 578.111 121.416 576.009 120.887C573.907 120.359 572.939 121.302 571.178 120.936C569.351 120.554 568.53 118.237 567.868 116.197C566.516 112.025 566.551 105.037 570.212 101.235C572.031 99.3462 574.569 98.4992 576.911 99.0499C578.695 99.4603 580.007 101.17 581.092 101.442C582.175 101.715 584.646 100.677 586.721 101.442C587.605 101.706 590.023 102.679 590.939 105.565C590.786 105.617 587.423 106.649 586.429 110.304L586.429 110.304ZM585.986 98.722C587.287 97.7445 588.41 96.2103 588.709 94.4781C587.31 94.1889 585.383 94.6773 584.049 95.646C582.857 96.5011 581.593 98.0318 581.337 99.7391C582.843 100.252 584.684 99.7003 585.986 98.722" fill="white"/>
</g>
</g>
<defs>
<linearGradient id="paint0_linear" x1="-22.497" y1="-6.66187" x2="-22.497" y2="646" gradientUnits="userSpaceOnUse">
<stop stop-color="#6039FF"/>
<stop offset="0.325589" stop-color="#156EFF"/>
<stop offset="0.862562" stop-color="#19DFFA"/>
<stop offset="1" stop-color="#7AFFEB"/>
</linearGradient>
</defs>
</svg>
