<svg width="121" height="180" viewBox="0 0 121 180" fill="none" xmlns="http://www.w3.org/2000/svg">
<path fill-rule="evenodd" clip-rule="evenodd" d="M103.288 143.835L105.753 147.397L74.2466 178.63L67.5342 172.055L65.7534 159.726L75.3425 162.466L96.3014 132.466L103.288 143.835Z" fill="#151514"/>
<path fill-rule="evenodd" clip-rule="evenodd" d="M40.6847 177.398L48.9039 180L50.8217 178.767L49.0409 176.302V173.014L33.0135 161.37L29.7258 164.658L40.6847 177.398Z" fill="#9A9E25"/>
<path fill-rule="evenodd" clip-rule="evenodd" d="M25.4792 149.863L28.7669 169.178L40.6847 177.397L42.6025 175.753L30.8217 164.11L32.4656 162.74L44.6573 173.014H49.0409L54.7943 166.986L56.5752 163.562L25.4792 149.863Z" fill="#AE6322"/>
<path fill-rule="evenodd" clip-rule="evenodd" d="M42.6029 14.1096L64.6577 31.3699L28.3563 95.4795L9.17822 89.4521L15.8906 55.2055C15.8906 55.2055 16.0275 26.4384 17.1234 27.1233C18.3563 27.9452 42.6029 14.1096 42.6029 14.1096Z" fill="#F08D90"/>
<path fill-rule="evenodd" clip-rule="evenodd" d="M42.6027 14.1096L54.1096 23.0137L55.2055 28.0822H34.2465L17.5342 50.411L16.0273 46.4384C16.1643 38.0822 16.4383 26.8494 17.2602 27.2603C18.3561 27.9452 42.6027 14.1096 42.6027 14.1096Z" fill="#768930"/>
<path fill-rule="evenodd" clip-rule="evenodd" d="M49.041 28.082V16.8492L79.726 15.2053L92.0547 33.9725L84.2465 38.904C84.2465 38.904 49.041 28.219 49.041 28.082Z" fill="#561A26"/>
<path fill-rule="evenodd" clip-rule="evenodd" d="M79.7261 18.7673L73.4248 25.4797H60.822V32.603L84.5207 38.6304L91.644 29.7262L79.7261 18.7673Z" fill="#A2223B"/>
<path fill-rule="evenodd" clip-rule="evenodd" d="M82.7397 41.3702L75.6164 28.0825H49.041V30.8222L66.4383 43.288L82.7397 41.3702Z" fill="#E96086"/>
<path fill-rule="evenodd" clip-rule="evenodd" d="M27.8079 26.1643L37.1229 21.5068L37.5339 22.0547L33.8353 24.9314L38.4928 30.2739L39.0408 29.9999L37.1229 24.9314L44.6572 19.178L45.0682 19.726L41.2325 25.0684L44.2462 28.9041L44.6572 28.4931L43.4243 24.9314L50.6846 21.6438L51.6435 22.6027L48.2188 25.8903L49.8627 27.2602L52.7394 22.6027L64.2462 29.726L64.5202 29.452L57.123 21.3698L57.9449 20.6849L67.26 25.7534L66.575 30.5479L66.986 30.6849L70.6846 23.9725L66.575 18.904L67.5339 17.6712L63.0134 10.4109L39.8627 11.2328L24.9312 23.9725L26.9859 27.8082L27.8079 26.1643Z" fill="#266B77"/>
<path fill-rule="evenodd" clip-rule="evenodd" d="M25.2051 15.7534L24.7942 14.9315L44.3832 2.87671L44.9312 3.42466L41.7805 6.16439L42.1915 6.71233L51.2326 1.50685L51.7805 2.19178L49.5887 3.69863L49.9997 4.10959L56.575 0L57.9449 0.410959L69.8627 5.47946L90.6847 21.7808L84.2463 25.6165L76.986 18.3562L67.534 16.1644L67.397 16.9863L74.9312 18.9041L74.6572 20.6849L63.4244 15.8904V13.5617H63.1504L60.8216 19.3151L60.5476 19.1781L60.1367 13.8356H59.5887L58.6298 18.3562L60.6846 21.3699L60.4107 21.6439L56.986 18.9041L56.575 13.2877H55.6161L53.8353 20.411L57.9449 24.3836L57.6709 24.7945L50.8216 20.274L50.6846 13.9726L48.9038 13.8356L46.712 22.0548L45.8901 21.9178L46.1641 16.4384L44.5202 15.3425L37.6709 20.6849L34.3832 16.8493L26.575 20.274L25.2051 15.7534Z" fill="#42233D"/>
<path fill-rule="evenodd" clip-rule="evenodd" d="M101.37 26.9865L100.274 24.1098L101.096 23.8358L100.822 22.7399L83.6988 7.80842L57.2604 0.27417L57.1234 0.822116L66.8494 5.47965L66.4385 6.16459L58.2193 3.15088L56.5754 6.9865L69.1782 8.0824L69.5891 10.5482L78.2193 15.7536L84.7946 20.1372L83.8357 21.5071L88.6303 28.2194L91.096 39.7263L105.48 44.7948L110 42.055L101.37 26.9865Z" fill="#151514"/>
<path fill-rule="evenodd" clip-rule="evenodd" d="M118.904 71.644L118.493 69.1783L114.52 65.2057L114.246 60.6851L112.74 59.8632L112.877 59.1783L114.246 59.8632L113.288 49.0413L111.644 48.0824L111.918 47.5344L113.288 48.3563L113.151 44.5207L101.781 25.3426L100.822 25.8906L108.356 41.781L104.52 43.9728L96.9862 20.1372L81.2327 9.04126L80.8218 9.58921L94.6574 20.9591L93.9725 33.9728H89.9999L97.8081 74.1098L107.808 80.1372L118.904 71.644Z" fill="#151514"/>
<path fill-rule="evenodd" clip-rule="evenodd" d="M11.6436 52.7397L7.26001 48.4931L14.3833 35.3424L17.26 35.8904L17.534 35.0684L15.0682 33.8356L23.5614 18.9041L24.7943 19.452L21.6436 29.726L22.4655 30.1369L24.7943 25.4794L32.3285 27.2602V27.9452L26.986 27.8082L21.6436 34.3835L23.4244 35.4794L26.7121 30L28.6299 31.2328L21.5066 38.3561L19.0408 44.2465L22.3285 57.8082L20.6847 60.4109L11.6436 58.3561V52.7397Z" fill="#266B77"/>
<path fill-rule="evenodd" clip-rule="evenodd" d="M85.753 13.6986L89.0407 21.9178H89.8626L90.2735 18.9041L92.7393 19.863L90.5475 22.8767L96.5749 25.6164L98.3557 42.3288L96.9859 42.6027L97.1229 43.2877L101.78 43.5616L101.506 66.0274L94.3831 65.7534L89.8626 25.4794L77.8078 17.5342L52.7393 8.08217L53.1502 7.26025L85.753 13.6986Z" fill="#561A26"/>
<path fill-rule="evenodd" clip-rule="evenodd" d="M6.71181 61.9178L5.88989 61.2329V44.5206L9.04058 41.5069L8.49264 40.8219L7.25976 41.7808L6.71181 41.3699L19.5885 19.589L37.5337 7.67121L38.2187 8.35614L27.1228 17.5342L27.6707 18.3561L48.2187 4.10956L48.6296 4.52052L43.8351 9.04107L44.794 10.274L52.6022 3.01367L53.4242 3.28764L44.2461 17.2603L41.2324 16.4383L44.931 13.8356L44.1091 13.0137L27.6707 24.1096L19.0406 44.2466L22.3283 57.8082L20.8214 60L6.71181 61.9178Z" fill="#151514"/>
<path fill-rule="evenodd" clip-rule="evenodd" d="M26.8491 26.0273L24.9313 30.2739L21.6436 34.3835L22.8765 35.2054L19.0408 44.2465L22.3285 57.8082L20.8217 60L19.5888 60.2739L11.6436 58.3561V52.7397L7.26001 48.4931L14.3833 35.3424L17.26 35.8904L17.534 35.0684L15.0682 33.8356L23.5614 18.9041L24.7943 19.452L21.6436 29.726L22.4655 30.1369L24.7943 25.4794L26.8491 26.0273Z" fill="#561A26"/>
<path fill-rule="evenodd" clip-rule="evenodd" d="M4.93121 68.9042V67.5343L8.35587 65.8905L7.94491 64.9316L4.24628 67.3973L3.97231 66.9864L12.6025 50.959L11.7805 50.137L9.17779 53.1507L7.123 51.3699L14.3833 43.9727L18.6299 47.9453L16.849 49.8631L17.534 50.411L19.4518 48.9042L19.9997 49.5891L14.3833 57.5343L14.9312 57.9453L19.1778 54.3836L21.7805 58.6302L16.712 66.7124L17.26 67.2603L20.9586 62.8768L22.8764 64.9316L16.3011 69.4521L18.2189 81.9179L13.6983 88.9042L3.15039 77.9453L4.93121 68.9042Z" fill="#842351"/>
<path fill-rule="evenodd" clip-rule="evenodd" d="M4.10924 68.9043H12.0545V70.0002L9.31472 70.9591L9.45171 71.644L12.1914 71.2331V73.5618H13.1503L15.2051 63.2878L16.986 63.6988L13.2873 74.5207L16.849 78.0824L13.6983 85.2057L16.301 87.1235L14.5202 97.3974L2.05444 78.6303L4.10924 68.9043Z" fill="#561A26"/>
<path fill-rule="evenodd" clip-rule="evenodd" d="M63.9722 162.192L68.0818 161.507L70.5476 169.315H73.0133L74.7941 164.52L75.4791 164.657L74.6571 169.041L76.7119 169.178L80.6846 166.301L79.7257 164.11L80.5476 163.699L81.2325 165.89L81.9174 165.753L81.5065 158.767L71.2325 150.548L59.4517 156.301L63.9722 162.192Z" fill="#561A26"/>
<path fill-rule="evenodd" clip-rule="evenodd" d="M101.507 64.2468H99.4521V52.74L96.4384 53.0139L96.1644 52.192L99.1781 51.0961L94.7946 39.5893L96.9863 37.9454L96.5754 37.2605L94.1096 37.6715L90.411 25.8906L79.7261 18.7673L78.6302 20.0002L88.0822 29.3153L83.1507 35.3427H78.9041L76.9863 42.603L87.8083 80.8222L103.973 81.3701L101.507 64.2468Z" fill="#A74522"/>
<path fill-rule="evenodd" clip-rule="evenodd" d="M93.4244 35.3427L90.4107 25.8906L79.7258 18.7673L78.6299 20.0002L88.0819 29.3153L83.1504 35.3427H93.4244Z" fill="#A2223B"/>
<path fill-rule="evenodd" clip-rule="evenodd" d="M26.5753 146.849L26.7123 147.671L24.6575 148.356L29.315 156.986L39.452 159.178L39.315 160L31.7808 159.041L31.5068 160.411L47.6712 170.548L54.6575 164.247L55.2054 165.069L51.0958 168.767L52.0547 169.589L54.2465 167.26H59.315L61.9178 163.699H66.3013L65.7534 160.411C65.7534 160.411 61.7808 151.507 61.6438 151.644C61.6438 151.781 31.7808 140.685 31.7808 140.685L26.5753 146.849Z" fill="#6FADCF"/>
<path fill-rule="evenodd" clip-rule="evenodd" d="M46.9862 156.164L48.767 158.493L43.5615 162.603L45.7533 165.069L55.0684 159.041H60.9588L63.8355 153.151C63.8355 153.151 49.178 150.822 49.4519 150.822C49.8629 150.822 46.9862 156.164 46.9862 156.164Z" fill="#BBE2EE"/>
<path fill-rule="evenodd" clip-rule="evenodd" d="M91.6438 145.754L93.1507 148.219L88.6301 149.315L91.3699 159.589L88.0822 160.822L85.2055 157.534L84.6575 158.082L86.4384 161.37L79.589 163.014L78.4931 167.945L77.2603 168.082L76.7123 157.671L73.4246 156.302L72.7397 157.397L75.4794 158.356L73.4246 165.754L72.3288 165.891L68.6301 153.973L69.1781 146.576L87.9452 137.671L91.6438 145.754Z" fill="#A2223B"/>
<path fill-rule="evenodd" clip-rule="evenodd" d="M73.2871 153.288L71.6433 154.795L74.383 156.165L75.4789 154.384L73.2871 153.288Z" fill="#A5C332"/>
<path fill-rule="evenodd" clip-rule="evenodd" d="M81.5067 143.425L76.4382 153.288L70.8218 150.274L80.9588 143.151L81.5067 143.425Z" fill="#A5C332"/>
<path fill-rule="evenodd" clip-rule="evenodd" d="M110.411 115.89H112.192L117.26 106.301L118.356 85.7533L120.411 80.9588L118.767 70.2738H113.836L111.37 66.1643L111.918 65.7533L113.836 68.767L115.616 67.2601L106.438 54.3834L106.849 53.8355L111.781 59.7259L112.603 57.6711L104.247 50.8218L101.781 52.0547L108.219 62.4656L106.986 63.1506L105.616 59.4519L104.384 60.4108L110.548 70.2738L109.863 70.6848L106.849 66.9862L105.89 68.904L108.767 70.2738L105.205 80.5478L110.411 115.89Z" fill="#151514"/>
<path fill-rule="evenodd" clip-rule="evenodd" d="M110.411 115.89H112.192L117.26 106.301L118.356 85.8901H116.712V98.7669L113.151 112.739H110.822L110.137 113.698L110.411 115.89Z" fill="#561A26"/>
<path fill-rule="evenodd" clip-rule="evenodd" d="M2.19178 92.466L2.0548 85.4797L0 75.2057L2.73973 68.9043H6.16439L8.63014 72.192L5.89041 74.1098L6.16439 74.6577L9.58905 73.8358L12.0548 78.2194L9.58905 79.8632L10.274 80.9591L12.8767 80.0002V87.8084L14.3836 89.5892L13.2877 99.5892H5.61644L4.10959 96.4386L2.19178 92.466Z" fill="#A74522"/>
<path fill-rule="evenodd" clip-rule="evenodd" d="M3.69857 83.0137L2.19172 82.6027L1.78076 73.0137H5.20542L6.84926 76.1644L3.69857 83.0137Z" fill="#561A26"/>
<path fill-rule="evenodd" clip-rule="evenodd" d="M12.8763 86.7122V87.808L14.3832 89.5889L13.2873 99.5889H5.61604L5.20508 98.63V86.7122H12.8763Z" fill="#842351"/>
<path fill-rule="evenodd" clip-rule="evenodd" d="M3.83524 95.4795L2.19141 92.6028L4.93113 75.4795H6.301L11.3695 84.9316L10.1366 86.0274L6.02702 83.8357L3.56127 87.1233L6.84895 97.6713C6.84895 97.6713 12.3284 97.5343 12.3284 97.6713C12.3284 97.8083 14.2462 109.863 14.2462 109.863L6.43799 108.493L3.83524 95.4795Z" fill="#FCD9BC"/>
<path fill-rule="evenodd" clip-rule="evenodd" d="M12.7399 99.7261C13.1508 102.055 13.6988 105.753 14.1097 108.082V109.315H10.959L9.17822 109.041V99.8631H12.7399V99.7261Z" fill="white"/>
<path fill-rule="evenodd" clip-rule="evenodd" d="M3.69849 83.0135L4.93136 75.3423H6.30122L11.5067 84.7943L10.1368 85.8902L7.5341 84.5204L7.80808 84.1094L3.69849 83.0135Z" fill="#EFCC47"/>
<path fill-rule="evenodd" clip-rule="evenodd" d="M12.4654 114.658H10.4106L5.75306 107.26L3.97223 96.1644L2.19141 92.4658L4.65716 95.3425L7.39689 107.123H15.4791L17.5339 112.877L12.4654 114.658Z" fill="#ED7D2E"/>
<path fill-rule="evenodd" clip-rule="evenodd" d="M105.342 92.329L105.616 93.2879L104.931 93.5619L99.3146 95.6167L87.2598 81.9181L94.794 76.3016L100.273 79.7263H101.506V64.2468H102.602L108.356 81.5071L105.342 92.329Z" fill="#561A26"/>
<path fill-rule="evenodd" clip-rule="evenodd" d="M13.6988 88.9043H9.86315L9.17822 96.1646L11.644 97.1235V97.6714L10.1371 97.9454L12.7399 110L15.2056 109.726L15.3426 110.137L12.1919 113.425L14.7947 128.356L19.3152 127.945V128.356L15.6166 130.411L24.2467 146.85H29.5892L39.0413 140.137L16.4385 88.7673L13.6988 88.9043Z" fill="#9A9E25"/>
<path fill-rule="evenodd" clip-rule="evenodd" d="M30.548 139.863L33.4247 141.918L35.0685 141.37L35.2055 141.781L29.5891 146.849L30.685 148.356L34.2466 143.836L36.9863 146.986L32.8767 152.877L27.2603 152.055L26.9863 152.74L33.9726 156.165L43.1507 153.973L43.5617 156.028L34.7945 156.712V157.397L46.3014 158.904L49.8631 156.439V132.055L43.2877 130.548L30.548 139.863Z" fill="#EFCC47"/>
<path fill-rule="evenodd" clip-rule="evenodd" d="M21.3696 127.808L25.3422 132.192H27.26V133.425H22.3285V134.11L30.6847 139.863L42.1916 135.206L42.6025 135.89L37.671 139.452L38.4929 144.521H39.0409L39.5888 140.548C39.5888 140.548 44.7943 140.411 44.7943 140.548C44.7943 140.685 63.6984 138.767 63.6984 138.767L64.6573 123.288L30.1368 119.726L21.3696 127.808Z" fill="#EFCC47"/>
<path fill-rule="evenodd" clip-rule="evenodd" d="M42.3285 140.411C43.0134 140.411 43.6983 140.411 44.1093 140.411H44.7942C44.9312 140.411 46.3011 140.274 48.0819 140.137L51.0956 138.356L50.2737 132.055H48.6298L50.1367 135.89L48.9038 136.438L47.26 133.699L41.6435 137.397L42.6024 139.452L42.1915 139.863L40.5476 138.082L38.9038 139.589L39.1778 140.274H42.3285V140.411Z" fill="#842351"/>
<path fill-rule="evenodd" clip-rule="evenodd" d="M16.1643 84.9312L13.6986 88.9038L15.0684 90.5476L14.6575 91.0955L13.1506 90.5476L13.4246 97.8079L15.6164 97.1229L15.8904 97.9449L13.2876 99.5887L18.9041 114.794L16.0274 117.945L24.3835 125.205L21.3698 127.808L23.0137 129.452L28.9041 123.424H32.8767L36.7123 98.9038L20.1369 92.1914L16.1643 84.9312Z" fill="#99D0E4"/>
<path fill-rule="evenodd" clip-rule="evenodd" d="M62.0547 125.479H50.9589L47.8082 131.233L47.1232 131.096L47.9451 126.164L46.5753 125.479L36.1643 137.397L32.7397 136.027L36.4383 130.959L35.2054 130.137L29.315 135.205L28.4931 134.521L30.2739 119.041L29.178 118.767L26.0273 123.699L21.7807 119.452L27.1232 114.931L26.5753 114.11L22.7397 115.753L16.1643 91.6438L28.3561 86.0273L62.0547 115.342V125.479Z" fill="white"/>
<path fill-rule="evenodd" clip-rule="evenodd" d="M60.8218 125.48H58.2191L57.6711 127.808H57.2602L56.8492 125.48H53.8355L52.0547 132.74L54.1095 133.288L54.3835 127.534H55.3424L55.4793 135.343H56.1643L58.63 128.082L60.6848 128.767C60.6848 128.767 55.4793 137.123 55.3424 137.534C55.3424 137.808 63.4246 139.589 63.4246 139.589L68.904 131.233L67.1232 125.48L61.6437 124.658L60.8218 125.48Z" fill="#9A9E25"/>
<path fill-rule="evenodd" clip-rule="evenodd" d="M66.1643 128.904V134.247H64.7944L65.7533 131.233H63.8355L62.8766 136.028H61.7808L60.4109 130.685L62.4657 128.904H66.1643Z" fill="#768930"/>
<path fill-rule="evenodd" clip-rule="evenodd" d="M47.3971 138.357L42.7395 140.137L35.4792 153.562L36.1642 154.384L41.3697 149.589L42.8765 151.233L38.219 153.836L38.6299 154.521L44.3834 152.466L48.219 157.672L51.7806 155.206L52.0546 155.617L49.0409 160.274L50.8217 161.233L53.4245 154.932L61.3697 154.795L61.5067 155.343L56.5752 156.439L55.8902 161.781L57.5341 162.192L58.082 157.398H58.7669L59.3149 162.877L66.0272 161.918L65.3423 156.439L66.3012 156.165L67.5341 158.905L70.5478 158.083L69.1779 153.973C69.1779 153.973 63.2875 152.192 63.4245 152.329C63.5615 152.329 71.2327 145.206 71.2327 145.206L70.5478 139.452L48.7669 137.809L47.3971 138.357Z" fill="#FCD9BC"/>
<path fill-rule="evenodd" clip-rule="evenodd" d="M43.1504 138.356L48.7668 141.781L45.0682 148.63L48.3559 150.137L49.3148 147.534L53.6983 146.712C53.6983 146.712 69.5888 145.343 69.5888 145.206C69.5888 144.932 67.9449 139.589 68.0819 139.863C68.2189 140.137 46.3011 137.945 46.3011 137.945L43.1504 138.356Z" fill="#99D0E4"/>
<path fill-rule="evenodd" clip-rule="evenodd" d="M54.3834 146.575L51.2327 147.26V151.096H53.0135L52.0546 149.178L52.6025 149.041L55.2053 152.739L57.534 151.096L58.6299 151.918L55.8902 152.876L56.1642 153.287L68.6299 153.972L69.8628 158.219L71.6436 157.671L68.7669 153.424L69.3149 153.013L71.7806 155.479L75.0683 151.096L73.2875 149.589L73.5614 149.178L75.7532 150.274L80.9587 143.15L86.4382 145.479L89.9998 136.575L79.4519 130.137L70.6847 146.027L54.3834 146.575Z" fill="#A74522"/>
<path fill-rule="evenodd" clip-rule="evenodd" d="M66.9862 140.274V143.973H53.4245L52.1917 148.493L60.1369 150.137L63.9725 145.753L73.1506 144.521C73.1506 144.521 71.6437 139.589 71.5067 139.315C71.3698 139.041 66.9862 140.274 66.9862 140.274Z" fill="#C7AC2B"/>
<path fill-rule="evenodd" clip-rule="evenodd" d="M110.411 114.52V117.808L107.26 134.383L104.658 134.246L104.521 134.657L107.123 135.753L98.2192 154.246L92.6027 152.192L99.1781 142.466L96.4384 138.356L96.0274 138.63L97.5343 142.055L88.0822 147.945L88.4932 157.397L87.6712 157.534L82.8767 148.219L85.4795 141.918L97.3973 127.808C97.3973 127.808 106.575 112.465 107.123 112.602C107.945 112.602 110.411 114.52 110.411 114.52Z" fill="#561A26"/>
<path fill-rule="evenodd" clip-rule="evenodd" d="M69.7259 140.959L70.6848 143.425L59.178 145.616L58.767 148.767L58.219 148.63L57.5341 146.027L52.6026 146.986L52.1917 148.493L63.5615 152.603L64.2465 146.986L65.8903 147.397L64.2465 152.877H68.767L67.9451 146.849L69.178 146.575V150.137H70.1369L79.8629 141.918L77.5341 140.548L80.2739 138.767L78.63 136.986L69.7259 140.959Z" fill="#768930"/>
<path fill-rule="evenodd" clip-rule="evenodd" d="M59.4517 123.836L66.438 128.219L63.5613 136.575L73.9723 135.891C73.9723 135.891 73.1504 128.767 73.8353 128.493C74.5202 128.219 66.1641 122.192 66.1641 122.192C66.1641 122.192 59.3147 123.836 59.4517 123.836Z" fill="#842351"/>
<path fill-rule="evenodd" clip-rule="evenodd" d="M66.301 124.384L64.5202 127.124L65.8901 127.945L63.5613 136.576L71.2325 136.028L73.8353 135.069C73.8353 134.521 73.6983 133.836 73.6983 133.014L69.1777 124.384L68.7668 124.11L66.301 124.384Z" fill="#B8702E"/>
<path fill-rule="evenodd" clip-rule="evenodd" d="M65.6164 128.904L65.0684 131.233H65.7533L64.7944 134.247H66.1643V128.904H65.6164Z" fill="#A74522"/>
<path fill-rule="evenodd" clip-rule="evenodd" d="M108.63 88.0825H110.137L113.425 96.7127L110.548 100.959H112.603L110.411 114.521L109.178 114.247L108.904 115.069L110.274 115.617L102.329 133.014L97.8083 130.137L87.6713 146.028L84.3836 144.658L86.7124 139.315L83.0137 129.863L81.2329 122.877L103.973 96.1647L108.63 88.0825Z" fill="#842351"/>
<path fill-rule="evenodd" clip-rule="evenodd" d="M108.63 88.0825H110.137L113.425 96.7127L110.685 100.822H112.74L110.685 114.384L109.315 114.11L109.178 114.932L110.548 115.617L109.041 118.904L105.89 114.521C105.89 114.521 101.781 113.288 100.822 114.247C100.411 114.658 100.685 107.672 101.233 99.7264L104.384 96.0277L108.63 88.0825Z" fill="#561A26"/>
<path fill-rule="evenodd" clip-rule="evenodd" d="M108.63 84.6575V97.3972L106.302 98.0821L106.438 98.9041L108.63 99.178L107.808 114.521H107.123L105.343 111.918L104.11 112.603L107.123 116.575L97.5344 127.808L94.2467 123.973L93.5618 124.384L96.5755 130.685L89.4522 134.521L85.0686 126.438L83.0138 126.712L86.7125 132.192L83.9727 135.205L75.8905 131.918L72.1919 121.233L101.096 95.7534L108.63 84.6575Z" fill="#71642A"/>
<path fill-rule="evenodd" clip-rule="evenodd" d="M78.2191 135.205L77.2602 129.041H75.7534L77.3972 133.699L76.9863 133.973L73.9726 128.493H73.4246L74.2465 135.069L64.1095 134.521L63.2876 137.534L62.1917 137.671L63.1506 130L62.4657 129.863L59.452 136.438L46.0273 136.849L46.3013 137.945L70.9589 139.315L78.2191 135.205Z" fill="#A74522"/>
<path fill-rule="evenodd" clip-rule="evenodd" d="M62.4654 136.028L63.1503 130L62.4654 129.863L60.9585 133.014L61.7804 136.028H62.4654Z" fill="#842351"/>
<path fill-rule="evenodd" clip-rule="evenodd" d="M77.397 120.411L75.8902 126.027L81.5066 132.466L82.4655 132.055L80.5477 129.315L82.6025 128.767L84.7943 134.383L83.1505 136.027L66.4381 137.808L66.3011 137.26L73.2874 134.383L70.1368 128.493L69.4518 128.63L71.3696 133.151L69.5888 133.699L66.9861 125.479H64.2463L68.2189 106.301L80.4107 108.904L77.397 120.411Z" fill="#151514"/>
<path fill-rule="evenodd" clip-rule="evenodd" d="M75.2054 136.849L66.4383 137.808L66.3013 137.26L71.7807 134.932L74.2465 135.069L73.4246 128.493H73.9725L76.9862 133.973L77.3972 133.699L75.7533 129.041H77.2602L78.2191 135.205L75.2054 136.849Z" fill="#561A26"/>
<path fill-rule="evenodd" clip-rule="evenodd" d="M43.1504 138.357L45.2052 138.767L48.0819 137.946L66.986 141.233H69.8627L77.534 137.809L76.1641 136.439L64.6573 138.904L46.849 137.809L43.1504 138.357Z" fill="#A74522"/>
<path fill-rule="evenodd" clip-rule="evenodd" d="M72.6023 140L77.5338 137.809L76.164 136.439L72.6023 137.124V140Z" fill="#842351"/>
<path fill-rule="evenodd" clip-rule="evenodd" d="M43.1504 138.357L44.7942 139.315L47.397 138.357L50.2737 139.315L66.986 140.548V138.357L64.6573 138.904L46.849 137.809L43.1504 138.357Z" fill="#E96086"/>
<path fill-rule="evenodd" clip-rule="evenodd" d="M50.2737 139.315L57.123 141.37H66.986V139.315H50.2737ZM67.8079 141.233H69.3148V139.178H67.8079V141.233Z" fill="white"/>
<path fill-rule="evenodd" clip-rule="evenodd" d="M66.4381 36.4382L55.6162 29.5889L54.9313 30.5478L58.6299 34.2464L49.0408 29.5889L26.3011 40.4108L30.5477 68.904L21.6436 79.1779C21.6436 79.1779 23.0134 82.3286 23.0134 82.6026C23.0134 82.8766 43.9723 81.2327 43.9723 81.2327C43.9723 81.2327 66.4381 77.6711 66.7121 77.8081C66.9861 77.8081 66.4381 36.4382 66.4381 36.4382Z" fill="white"/>
<path fill-rule="evenodd" clip-rule="evenodd" d="M21.6436 95.8903L19.4518 93.1505L20.1368 92.1916L14.2463 81.3697L15.4792 80.8218L20.8217 91.6437L21.6436 91.7807L22.7395 95.3423L21.6436 95.8903Z" fill="#842351"/>
<path fill-rule="evenodd" clip-rule="evenodd" d="M46.9861 106.576H24.7943L24.3833 108.357L42.8765 116.713L49.4518 110.548L46.9861 106.576Z" fill="#FCD9BC"/>
<path fill-rule="evenodd" clip-rule="evenodd" d="M42.4656 100.959L47.9451 104.109L39.3149 125.616L40.5478 126.301L52.0547 113.425L55.3423 115.205L59.041 96.5752L42.4656 100.959Z" fill="#FCD9BC"/>
<path fill-rule="evenodd" clip-rule="evenodd" d="M42.4658 100.959L48.0823 104.11L46.0275 109.178L53.8357 103.973C53.8357 103.973 55.0686 99.178 55.6165 97.3972L42.4658 100.959Z" fill="#D8E4EF"/>
<path fill-rule="evenodd" clip-rule="evenodd" d="M103.151 92.4657L102.603 91.2328L101.37 93.2876L100.274 92.6027L102.466 90.8219L101.507 88.7671L99.1779 89.9999L98.7669 89.041L100.137 88.2191L99.8628 87.6712L97.3971 88.3561L98.219 84.9314L90.8217 81.7808L88.356 83.1506L96.7121 90.2739L98.493 95.6164L102.877 95.0684L103.151 92.4657Z" fill="#A74522"/>
<path fill-rule="evenodd" clip-rule="evenodd" d="M99.726 94.1096H102.329L109.726 78.6301L110.822 79.0411L106.301 87.8082L102.466 96.1644L98.4932 95.6164L99.726 94.1096Z" fill="#768930"/>
<path fill-rule="evenodd" clip-rule="evenodd" d="M103.151 95.7532V106.986H102.603L100.822 105.205L100.274 105.616L102.055 109.178L101.507 109.726L96.9862 107.945L96.4382 108.63L103.698 115.479L102.466 116.849L98.356 111.644L92.3286 116.712L91.3697 130L89.9998 130.411L86.1642 124.657H76.1642L78.356 116.301L70.9587 107.671C70.9587 107.671 81.6437 100.274 81.5067 97.945C81.3697 95.6163 99.7259 95.3423 99.7259 95.3423L103.151 95.7532Z" fill="#B8702E"/>
<path fill-rule="evenodd" clip-rule="evenodd" d="M77.2601 102.877C78.7669 101.644 79.9998 100.411 80.8217 99.4521H90.2738L89.9998 108.63L96.4382 100.411L99.1779 106.164L90.4108 110.411V119.315H79.4519V110.411H73.4245L71.0957 107.671C71.0957 107.671 73.4245 106.027 75.8902 104.11L79.4519 107.671V102.877H77.2601Z" fill="#F1A049"/>
<path fill-rule="evenodd" clip-rule="evenodd" d="M26.4381 76.7124L24.5203 79.1782L27.671 80.685L27.534 81.096L23.1504 81.5069L22.0545 79.0412L21.6436 79.1782L21.7805 82.7398L30.6847 83.4247V85.8905L34.3833 83.6987L26.4381 76.7124Z" fill="#A5C332"/>
<path fill-rule="evenodd" clip-rule="evenodd" d="M60.5478 124.384L55.6163 120.822H52.8766L50.8218 117.534L55.8903 110L53.6985 104.384L55.8903 96.7124L50.9588 84.1096H66.3012L67.5341 93.1507C67.9451 93.1507 68.219 93.1507 68.0821 93.1507C67.8081 93.4247 75.0684 105.069 75.0684 105.069L69.3149 106.712L71.5067 116.301L65.4793 125.069H62.0547L60.5478 124.384Z" fill="white"/>
<path fill-rule="evenodd" clip-rule="evenodd" d="M59.9995 123.288L54.5201 117.808L59.0406 113.562V92.3288L67.3968 90.8219L64.9311 84.2466L56.7119 85.8904L57.2598 110.137L52.7393 114.658L53.6982 120.822L56.3009 121.918L59.4516 123.836L59.9995 123.288Z" fill="#FCD9BC"/>
<path fill-rule="evenodd" clip-rule="evenodd" d="M66.3012 109.041H64.2464L62.3286 97.3974L66.1642 91.918L66.5752 92.7399L71.0957 96.3015L66.3012 109.041ZM67.6711 111.233H64.5204V113.836H67.6711V111.233Z" fill="#A5C332"/>
<path fill-rule="evenodd" clip-rule="evenodd" d="M60.5481 124.384L58.9043 123.288H66.1646V96.8493H69.7262V96.5753C71.781 100.137 74.9317 105.342 74.9317 105.342L71.644 110.411L74.9317 117.397L65.6166 125.479H62.055L60.5481 124.384ZM67.1235 92.0548L67.2605 91.6438V92.0548H67.1235Z" fill="#561A26"/>
<path fill-rule="evenodd" clip-rule="evenodd" d="M58.4927 123.288H66.3009V109.041H69.1776V113.836H66.7119L68.4927 121.233L65.616 125.48H62.0543L58.4927 123.288Z" fill="#A74522"/>
<path fill-rule="evenodd" clip-rule="evenodd" d="M53.6985 120.822H52.8766L50.8218 117.534L55.2053 111.096L53.6985 104.384L55.8903 96.8495L53.8355 91.3701L57.8081 90.2742V111.233L53.9725 114.11V119.041L59.9999 123.288H58.493L56.3012 121.918L53.6985 120.822Z" fill="#A5C332"/>
<path fill-rule="evenodd" clip-rule="evenodd" d="M51.2328 106.165L47.6711 110.822L49.041 111.644L51.9177 105.617L51.2328 106.165Z" fill="#A5C332"/>
<path fill-rule="evenodd" clip-rule="evenodd" d="M64.6575 35.3425H79.452L94.1095 62.6028L86.9862 71.096L88.3561 72.8768L95.0684 72.3289L100.274 79.7261H93.6986L93.4246 79.4522L88.4931 79.7261L69.589 69.5891L64.6575 35.3425Z" fill="#A5C332"/>
<path fill-rule="evenodd" clip-rule="evenodd" d="M55.8903 94.9317L57.8081 93.5618H65.3424L68.2191 94.6577L66.7123 91.918L57.2602 92.4659L54.7944 94.7947L55.8903 94.9317Z" fill="#EFCC47"/>
<path fill-rule="evenodd" clip-rule="evenodd" d="M59.7259 75.6165V35.3425H64.6574L83.9724 47.5343L72.0546 69.3152L95.6163 78.3563L93.6985 79.7261C93.6985 79.7261 67.1231 84.9316 66.7122 84.9316C66.3012 84.9316 64.5204 85.8905 64.5204 85.8905H56.0272L54.6573 87.5344L52.8765 85.4796L52.0546 86.3015L36.5751 83.6987L29.7258 78.3563L33.0135 76.8494L47.808 80.548L59.7259 75.6165Z" fill="#D8E4EF"/>
<path fill-rule="evenodd" clip-rule="evenodd" d="M26.7124 89.5894L25.7535 89.3154L24.1096 95.3428H21.2329L21.6439 95.8907L23.8357 96.4387L23.6987 96.8496L24.3836 99.3154H25.0685L24.3836 96.8496L25.4795 96.7127L25.8904 97.9455H27.2603L27.8083 95.3428H25.2055L26.9863 88.3565L27.5343 88.0825L26.7124 89.5894Z" fill="#B8702E"/>
<path fill-rule="evenodd" clip-rule="evenodd" d="M77.3969 87.2603L64.6571 85.8905H57.6708V92.4658L54.9311 94.6576C54.9311 94.6576 53.6982 90.411 53.1503 88.4932L50.2736 90.274L49.4517 86.8494L53.8352 78.9041L58.6297 80.411L57.3969 83.8357L58.0818 84.2466L66.438 74.1096L67.2599 74.3836L66.575 80.685L73.0133 82.4658L77.3969 87.2603Z" fill="#EFCC47"/>
<path fill-rule="evenodd" clip-rule="evenodd" d="M31.918 89.863V94.9315L45.4796 102.74L52.192 98.7672L54.6577 99.4521L56.0276 95.4795L51.0961 86.9863L31.918 89.1781V89.863Z" fill="#D8E4EF"/>
<path fill-rule="evenodd" clip-rule="evenodd" d="M55.0685 93.8356L51.0959 86.9863L47.2603 87.3973V93.8356H55.0685Z" fill="#FCD9BC"/>
<path fill-rule="evenodd" clip-rule="evenodd" d="M53.2876 95.7534H53.9725H54.1095V97.2603H51.9177V95.7534H53.2876Z" fill="#768930"/>
<path fill-rule="evenodd" clip-rule="evenodd" d="M55.7532 97.6714L53.6984 104.384L44.6573 110.685H34.1094V109.726H44.3834L52.7395 103.973L54.5204 98.3563L55.7532 97.6714Z" fill="white"/>
<path fill-rule="evenodd" clip-rule="evenodd" d="M50.9588 84.2465H53.8355L56.5752 80.2739L56.9862 80.4109L54.5204 87.3972L55.4793 93.6986L55.3423 94.2465L54.3834 93.6986C54.3834 93.6986 49.5889 85.2054 49.5889 85.4794C49.3149 85.4794 50.9588 84.2465 50.9588 84.2465Z" fill="#768930"/>
<path fill-rule="evenodd" clip-rule="evenodd" d="M57.8078 91.5068L55.2051 93.8356L54.2462 92.0548L53.6982 92.3288L55.3421 95.7534L54.2462 99.3151L55.2051 99.589L56.301 95.7534L55.753 94.6575L57.8078 93.0137C57.8078 93.0137 58.4928 92.3288 58.3558 92.1918C58.3558 92.0548 57.8078 91.5068 57.8078 91.5068Z" fill="#768930"/>
<path fill-rule="evenodd" clip-rule="evenodd" d="M57.808 91.5068L55.4792 93.5616L58.082 91.7808C57.945 91.6438 57.808 91.5068 57.808 91.5068Z" fill="white"/>
<path fill-rule="evenodd" clip-rule="evenodd" d="M62.3286 92.1918V90.6849L65.6163 88.9041L62.8766 81.7808L64.2464 80.9589L69.7259 83.4247L78.767 77.1233L85.2053 81.2329L67.8081 92.4658L62.3286 92.1918Z" fill="#9A9E25"/>
<path fill-rule="evenodd" clip-rule="evenodd" d="M63.6985 93.0137L63.5615 91.5068H57.8081V93.0137H63.6985Z" fill="white"/>
<path fill-rule="evenodd" clip-rule="evenodd" d="M31.918 89.8629V91.3698L36.7125 93.6986L36.9865 93.0136L33.8358 90.6848V89.041L31.918 89.178V89.8629Z" fill="#EFCC47"/>
<path fill-rule="evenodd" clip-rule="evenodd" d="M26.438 86.8493L28.4928 90.9589L40.4106 85.8904L39.9996 84.1096H33.6983L26.438 86.8493Z" fill="#A5C332"/>
<path fill-rule="evenodd" clip-rule="evenodd" d="M50.8217 92.6029V94.7946L44.2464 100.548L40.2738 97.8083L44.5204 94.7946V91.644H35.4792V89.1782L47.3971 87.9453L50.8217 92.6029Z" fill="#99D0E4"/>
<path fill-rule="evenodd" clip-rule="evenodd" d="M96.1638 85.7532L99.7254 92.8765V98.4929L96.9857 104.794C96.9857 104.794 93.5611 104.383 93.4241 104.246C93.2871 104.109 92.0542 86.5751 92.0542 86.5751L96.1638 85.7532Z" fill="#768930"/>
<path fill-rule="evenodd" clip-rule="evenodd" d="M97.5341 95.3423H96.3013V96.8491H98.493V95.7532H97.9451L97.5341 95.3423Z" fill="#842351"/>
<path fill-rule="evenodd" clip-rule="evenodd" d="M79.315 109.178H88.904L97.9451 98.4932L92.0547 93.9727L77.8081 99.3151L79.315 109.178Z" fill="#F08D90"/>
<path fill-rule="evenodd" clip-rule="evenodd" d="M88.7669 99.3152H96.3012V104.658L88.219 110.274H80.6847L75.6162 106.712L79.0409 97.8083L88.7669 99.3152Z" fill="#F08D90"/>
<path fill-rule="evenodd" clip-rule="evenodd" d="M88.7672 99.3149H96.3015V100.274L89.0412 108.904H79.3152L77.9453 100.548L78.4933 99.0409L80.822 98.082L88.7672 99.3149Z" fill="#EFCC47"/>
<path fill-rule="evenodd" clip-rule="evenodd" d="M32.8763 83.8359L26.438 86.8496L27.1229 88.0825L33.8353 83.9729L32.8763 83.8359Z" fill="#561A26"/>
<path fill-rule="evenodd" clip-rule="evenodd" d="M89.5885 99.3153H79.4515V109.452L73.2871 106.165L71.6433 93.6989L81.7803 92.877L89.5885 99.3153Z" fill="#F1A049"/>
<path fill-rule="evenodd" clip-rule="evenodd" d="M79.4518 99.3152V109.452L73.2874 106.165L72.8765 103.151V99.3152H79.4518Z" fill="#A5C332"/>
<path fill-rule="evenodd" clip-rule="evenodd" d="M74.7942 92.1919L72.7394 94.7946L77.8079 100.685L74.5203 106.164L72.0545 105.48L68.9038 96.8494C68.9038 96.8494 72.4655 92.6028 72.6024 92.6028C72.7394 92.6028 74.7942 92.1919 74.7942 92.1919Z" fill="#A74522"/>
<path fill-rule="evenodd" clip-rule="evenodd" d="M76.5751 99.3152L77.808 100.685L74.6573 106.165L72.8765 105.617V99.3152H76.5751Z" fill="#768930"/>
<path fill-rule="evenodd" clip-rule="evenodd" d="M66.3013 91.5069V83.1507H68.3561L66.8492 87.6713L67.3972 87.9452L74.3835 80.685L80.5479 81.6439L80.8218 81.2329L77.3972 80.548L78.2191 79.4521L82.7396 80.685L90.9588 76.9863L93.6986 79.7261L88.767 83.4247L68.904 93.4247L66.3013 91.5069Z" fill="#842351"/>
<path fill-rule="evenodd" clip-rule="evenodd" d="M66.7122 91.5068H62.3286V93.0137H66.0273L68.63 95.6164L70.2738 93.0137L66.7122 91.5068Z" fill="#561A26"/>
<path fill-rule="evenodd" clip-rule="evenodd" d="M66.301 91.5068H62.3284L62.1914 91.6438L62.3284 91.7808H66.301V91.5068Z" fill="white"/>
<path fill-rule="evenodd" clip-rule="evenodd" d="M25.6162 77.6713L26.4381 76.7124L33.6984 80.411L36.5751 78.9042L37.2601 80.1371L34.1094 80.959L34.3833 81.5069L40.5477 79.8631L53.0135 85.0686V88.9042H51.7806L46.9861 85.0686L36.4381 82.7398L30.5477 81.7809L25.6162 77.6713Z" fill="#A74522"/>
<path fill-rule="evenodd" clip-rule="evenodd" d="M33.1505 83.9726L25.6162 77.6712L26.0272 77.2603L31.0957 80.4109L31.3696 80.137L29.3148 78.6301L30.6847 77.9452L33.8354 82.3287L39.3149 80.8219L39.4518 81.0959L37.2601 82.1918L37.397 82.4657L40.4107 80.8219L50.5477 85.2055L49.1779 87.5342L40.1368 83.5616L33.1505 83.9726Z" fill="#561A26"/>
<path fill-rule="evenodd" clip-rule="evenodd" d="M29.7258 78.3563L30.6847 77.9453L31.7806 79.4522L29.7258 78.3563Z" fill="#A74522"/>
<path fill-rule="evenodd" clip-rule="evenodd" d="M68.9039 93.4245L66.7122 91.5067L74.3834 83.1505L87.8081 80.8218L96.4382 85.3423L95.4793 86.9862L74.2464 90.4108L69.8628 94.5204L68.9039 93.4245Z" fill="#151514"/>
<path fill-rule="evenodd" clip-rule="evenodd" d="M39.5893 85.4797V84.6578H32.877L35.4797 83.0139H44.3838L51.0961 86.9865L54.5208 93.2879L53.8359 93.6989L49.8633 88.0824L47.8085 89.1783L39.5893 85.4797Z" fill="#A74522"/>
<path fill-rule="evenodd" clip-rule="evenodd" d="M39.5887 85.4797V84.6578H33.4243V84.2468L35.4791 83.0139H44.3832L50.8216 86.7126H42.4654L39.5887 85.4797Z" fill="#561A26"/>
<path fill-rule="evenodd" clip-rule="evenodd" d="M46.3013 89.0412V91.7809L37.8081 93.2878V93.8357H50.8218V90.4111L47.3972 87.9453L46.3013 89.0412Z" fill="#9A9E25"/>
<path fill-rule="evenodd" clip-rule="evenodd" d="M91.9173 86.5752L96.4379 93.0136L91.6433 99.3149H87.5337V91.2327H87.2598L91.9173 86.5752Z" fill="#A74522"/>
<path fill-rule="evenodd" clip-rule="evenodd" d="M69.9998 93.4247L69.8628 93.1507L69.1779 93.4247H68.9039L68.356 96.8493L72.0546 105.479L80.8217 110.411H88.356L97.3971 104.521L99.8628 98.4932L99.7258 92.7397H99.0409L99.1779 98.3562L96.5752 103.973L88.082 109.863H80.8217L72.6025 104.932L69.3149 96.7124L69.9998 93.4247Z" fill="white"/>
<path fill-rule="evenodd" clip-rule="evenodd" d="M74.794 92.192L73.5611 93.5619L71.7803 93.9728L72.6022 89.8633L89.8625 88.6304L89.3145 95.0687L79.0406 95.4797C79.3145 95.0687 79.4515 94.6578 79.5885 94.6578L74.794 92.192Z" fill="#F08D90"/>
<path fill-rule="evenodd" clip-rule="evenodd" d="M74.794 92.1916L73.2871 93.9724H71.7803L72.6022 89.9998L77.6707 89.5889V93.8354L74.794 92.1916Z" fill="#A74522"/>
<path fill-rule="evenodd" clip-rule="evenodd" d="M88.9041 97.8082H79.041L76.7123 93.9726H73.2876L74.7945 92.1917L77.6712 93.8356L79.452 94.7945L87.5342 94.5205V93.2876L89.452 91.6438L90.5479 92.0548L90.2739 92.7397L92.0548 93.9726L88.9041 97.8082Z" fill="#FCD9BC"/>
<path fill-rule="evenodd" clip-rule="evenodd" d="M88.904 97.8082H87.5342V94.5205V93.2876L89.452 91.6438L90.5479 92.0548L90.2739 92.7397L92.0547 93.9726L88.904 97.8082Z" fill="#C7AC2B"/>
<path fill-rule="evenodd" clip-rule="evenodd" d="M92.3287 91.2329L90 94.2466L78.7671 93.9726V93.2877L87.5342 92.0548V89.3151L91.5068 88.3562L92.3287 91.2329Z" fill="#768930"/>
<path fill-rule="evenodd" clip-rule="evenodd" d="M79.3152 85.0684L79.1782 84.6575L72.1919 89.315L73.9727 89.9999L79.3152 85.0684Z" fill="#A74522"/>
<path fill-rule="evenodd" clip-rule="evenodd" d="M77.6711 89.315V91.0958H72.8766L72.3286 97.3972H69.5889L69.3149 96.7123L69.9999 93.4246L71.7807 88.9041L78.767 83.2876L88.63 81.7808L95.7533 86.4383L95.2054 87.2602L77.6711 89.315Z" fill="#151514"/>
<path fill-rule="evenodd" clip-rule="evenodd" d="M73.6985 89.8633L72.4656 88.7674L78.356 85.3428L78.493 85.6167L73.6985 89.8633Z" fill="#561A26"/>
<path fill-rule="evenodd" clip-rule="evenodd" d="M79.8628 84.6577V83.6988L88.7669 83.4248L95.7532 86.5755L93.0135 90.2741L90.5477 87.1234L79.8628 84.6577Z" fill="#A74522"/>
<path fill-rule="evenodd" clip-rule="evenodd" d="M37.1229 85.6165L32.3284 85.8904L28.0818 91.2329L28.4927 91.6439L32.6023 89.5891H35.0681L37.1229 85.6165Z" fill="#561A26"/>
<path fill-rule="evenodd" clip-rule="evenodd" d="M83.2874 84.7944L90.9586 85.2054L93.8353 89.178L90.8216 93.1506L89.8627 92.3287L91.6435 89.8629L90.6846 89.315L87.26 91.0958H85.6161L83.2874 84.7944Z" fill="#561A26"/>
<path fill-rule="evenodd" clip-rule="evenodd" d="M40.9588 91.0962H41.5068V88.6304L42.6026 87.8085L40.5479 89.4523L40.9588 91.0962ZM44.5205 91.0962L47.8081 88.4934L45.3424 85.4797L42.8766 87.5345H46.3013V89.7263L44.5205 91.0962Z" fill="#A74522"/>
<path fill-rule="evenodd" clip-rule="evenodd" d="M41.5068 91.0958H44.5205L46.3014 89.726V87.5342H42.8767L41.5068 88.6301V91.0958Z" fill="#EFCC47"/>
<path fill-rule="evenodd" clip-rule="evenodd" d="M41.2325 91.0959H37.6709L33.4243 88.7671L36.0271 86.0273L39.4517 86.8493L41.2325 91.0959Z" fill="#9A9E25"/>
<path fill-rule="evenodd" clip-rule="evenodd" d="M41.2327 91.096H37.671L35.4792 90.0001V87.8083H39.8628L41.2327 91.096Z" fill="#FCD9BC"/>
<path fill-rule="evenodd" clip-rule="evenodd" d="M83.4243 91.0962H86.438L89.7257 87.8085L86.849 85.4797L83.4243 91.0962Z" fill="#768930"/>
<path fill-rule="evenodd" clip-rule="evenodd" d="M83.4243 91.0959H86.438L87.5339 90V87.2603H85.7531L83.4243 91.0959Z" fill="#EFCC47"/>
<path fill-rule="evenodd" clip-rule="evenodd" d="M81.7806 91.0956H79.0409L75.3423 89.1778L78.356 85.7532L81.5067 88.7669L81.7806 91.0956Z" fill="#9A9E25"/>
<path fill-rule="evenodd" clip-rule="evenodd" d="M81.7805 91.096H79.0408L77.6709 90.4111V87.6714H80.2736L81.5065 88.7673L81.7805 91.096Z" fill="#FCD9BC"/>
<path fill-rule="evenodd" clip-rule="evenodd" d="M37.3972 86.7124V88.9042L39.9999 91.096H42.4657L44.9315 88.7672V86.3015H45.6164L48.6301 89.1782V90.822H50.8219V90.0001L44.9315 85.0686L35.3424 85.7535L31.7808 88.7672L33.4246 89.3152L36.3013 86.7124H37.3972Z" fill="#151514"/>
<path fill-rule="evenodd" clip-rule="evenodd" d="M78.6298 86.7123V88.4931L81.3696 91.2328H84.3833L86.849 88.4931V86.3013L87.26 86.0273L90.5477 89.041L92.0545 88.2191L86.7121 84.9314L79.8627 84.6575L73.1504 89.726L75.2052 90.5479L78.0819 86.7123H78.6298Z" fill="#151514"/>
<path fill-rule="evenodd" clip-rule="evenodd" d="M38.904 87.5341L37.8081 88.219L39.9999 90.6848H42.3287L44.3835 88.493L43.2876 86.7122L42.7396 89.1779H40.1369V87.3971L38.904 87.5341Z" fill="#842351"/>
<path fill-rule="evenodd" clip-rule="evenodd" d="M40.9587 90.6851H42.3286L43.5615 89.3153L42.7396 88.7673V89.1783H40.1368V88.9043L39.5889 89.4523L40.9587 90.6851Z" fill="#A74522"/>
<path fill-rule="evenodd" clip-rule="evenodd" d="M80.4108 87.6712L79.4519 88.3561L81.6437 90.5479H83.8355L86.3012 88.0821L85.4793 86.1643L84.2464 89.315H81.5067V87.6712H80.4108Z" fill="#842351"/>
<path fill-rule="evenodd" clip-rule="evenodd" d="M82.3288 90.548H83.8357L85.3425 89.1781L84.5206 88.4932L84.2466 89.3151H81.5069V89.1781L81.2329 89.4521L82.3288 90.548Z" fill="#A74522"/>
<path fill-rule="evenodd" clip-rule="evenodd" d="M80.2739 87.2601L80.6849 88.082L82.1917 87.2601L82.0547 86.8491L80.2739 87.2601ZM82.4657 86.7122H82.8767V87.1231H82.4657V86.7122Z" fill="white"/>
<path fill-rule="evenodd" clip-rule="evenodd" d="M85.3423 89.1783L84.7944 88.7673L83.5615 90.5481H83.8355L85.3423 89.1783Z" fill="white"/>
<path fill-rule="evenodd" clip-rule="evenodd" d="M38.7668 86.9867L39.1778 87.9456L40.9586 86.9867L40.8216 86.5757L38.7668 86.9867ZM41.3696 86.3018H41.7805V86.7127H41.3696V86.3018Z" fill="white"/>
<path fill-rule="evenodd" clip-rule="evenodd" d="M43.5613 89.315L43.1503 89.041L41.9175 90.6848H42.3284L43.5613 89.315Z" fill="white"/>
<path fill-rule="evenodd" clip-rule="evenodd" d="M69.3149 93.4246L71.2327 88.4931L78.493 82.7397L88.63 81.7808L96.4382 85.8904L99.7259 92.7397L99.315 93.1506L95.8903 86.4383L88.493 82.6027L78.767 83.2876L71.9177 89.041L69.9999 93.4246H69.3149Z" fill="white"/>
<path fill-rule="evenodd" clip-rule="evenodd" d="M96.7124 94.9316H97.9453V96.3015H96.7124V94.9316Z" fill="white"/>
<path fill-rule="evenodd" clip-rule="evenodd" d="M25.2053 95.3425L27.1231 88.0822L34.9314 82.7397H44.3834L51.3697 86.7123L54.7944 93.1507L54.2464 93.5617L50.8218 87.1233L44.1095 83.4247L35.2053 83.6986L27.2601 89.0411L25.7533 95.3425H25.2053Z" fill="white"/>
<path fill-rule="evenodd" clip-rule="evenodd" d="M70.4109 95.2056H71.9177V96.7124H70.4109V95.2056Z" fill="white"/>
<path fill-rule="evenodd" clip-rule="evenodd" d="M53.5613 95.7534H53.9722L55.2051 94.5205L55.6161 94.9315L54.1092 97.2602L53.5613 95.7534Z" fill="#768930"/>
<path fill-rule="evenodd" clip-rule="evenodd" d="M97.8081 95.6162H99.315V95.8902H97.5342L97.8081 95.6162Z" fill="white"/>
<path fill-rule="evenodd" clip-rule="evenodd" d="M55.6162 120.822L60.1367 123.699L58.9039 123.425L58.4929 123.288L56.3011 121.918L52.8765 120.822H55.6162Z" fill="#A74522"/>
<path fill-rule="evenodd" clip-rule="evenodd" d="M71.6437 114.247L73.5615 117.124L69.8629 119.041L69.4519 118.493L71.6437 114.247Z" fill="#A74522"/>
<path fill-rule="evenodd" clip-rule="evenodd" d="M99.8628 94.6575H102.74L108.082 84.2466L108.63 84.6575L103.15 95.7534H99.8628V94.6575Z" fill="#151514"/>
<path fill-rule="evenodd" clip-rule="evenodd" d="M43.1504 138.356L45.6161 135.479L47.534 137.397L64.9312 138.219L83.1504 133.288L84.1093 134.931L78.0819 140.822L77.123 140.274L79.0408 139.178L78.7669 138.493L69.8627 141.233L69.7258 140.959L75.7532 137.534V137.123L64.6573 138.904L46.849 137.808L43.6983 138.63L43.1504 138.356Z" fill="#151514"/>
<path fill-rule="evenodd" clip-rule="evenodd" d="M56.1641 166.712L68.7668 175.48L69.4517 174.521L59.5887 165.343L56.1641 166.712Z" fill="#6FADCF"/>
<path fill-rule="evenodd" clip-rule="evenodd" d="M25.8904 94.5205H28.2192V96.8493H25.8904V94.5205Z" fill="white"/>
<path fill-rule="evenodd" clip-rule="evenodd" d="M52.3286 95.4795H53.8355V96.9864H52.3286V95.4795Z" fill="white"/>
</svg>
