<svg width="151" height="167" viewBox="0 0 151 167" fill="none" xmlns="http://www.w3.org/2000/svg">
<path d="M149.975 71.1106L140.169 52.2973L122.192 37.5126L108.699 33.0278L86.4654 35.0422L76.0135 36.7905L64.9916 35.6883L39.109 36.7905L17.8252 45.6081L2.92652 67.804L0 91.9383L8.01943 122.268L22.8801 147.428L26.4527 126.334L22.8801 147.542L40.7812 162.821L55.7179 166.888L76.0515 163.657L99.9578 166.394L124.548 152.369L141.765 125.574L150.659 99.1596L149.975 71.1106ZM49.8269 104.29L21.5118 99.1216L49.8269 77.9138H49.8649L21.5498 99.1216L49.8269 104.29Z" fill="url(#paint0_radial)"/>
<path d="M143.59 3.68666L128.577 0L112.69 0.722128L97.1453 8.20946L84.071 20.7517L82.8547 29.5312L109.916 24.0583L124.738 21.4358L137.394 11.9341C137.394 11.9341 141.993 4.97889 142.905 3.83868L143.59 3.68666Z" fill="url(#paint1_radial)"/>
<path d="M17.8632 45.5701L2.92651 67.804L25.1225 65.0295L17.8632 45.5701Z" fill="#C8E879"/>
<path d="M2.92652 67.804L0 91.9383L25.1225 65.0295L2.92652 67.804Z" fill="#BAE264"/>
<path d="M8.01943 122.268L21.5118 99.1215L0 91.9382L8.01943 122.268Z" fill="#ACE551"/>
<path d="M8.01929 122.268L26.4146 126.297L22.8419 147.39L8.01929 122.268Z" fill="#C0E26D"/>
<path d="M22.842 147.504L40.7432 162.783L44.2019 147.314L22.842 147.504Z" fill="#8FC91A"/>
<path d="M40.7429 162.783L55.7176 166.849L44.2015 147.314L40.7429 162.783Z" fill="#7BAE1A"/>
<path d="M55.7178 166.85L76.0513 163.619L62.2929 150.963L55.7178 166.85Z" fill="#559319"/>
<path d="M76.0518 163.619L99.958 166.318L94.485 148.34L76.0518 163.619Z" fill="#548B1B"/>
<path d="M99.958 166.318L124.548 152.331L114.743 143.628L99.958 166.318Z" fill="#469219"/>
<path d="M141.765 125.498L133.441 107.103L150.658 99.0835L141.765 125.498Z" fill="#38821B"/>
<path d="M149.975 71.1109L141.765 66.7021L132.264 73.5054L150.659 99.084L149.975 71.1109Z" fill="#3B8426"/>
<path d="M140.131 52.2974L132.264 73.5051L149.975 71.1107L140.131 52.2974Z" fill="#569D1C"/>
<path d="M122.154 37.5125L119.417 54.2354L130.933 56.4398L140.131 52.2971L122.154 37.5125Z" fill="#4A9419"/>
<path d="M104.481 37.6645L122.154 37.5125L105.051 52.9432L104.481 37.6645Z" fill="#A2D152"/>
<path d="M81.6765 42.4914L95.3589 54.2355L104.48 37.6646L81.6765 42.4914Z" fill="#9DE25A"/>
<path d="M17.863 45.5702L35.6122 55.4899L37.4365 42.1116L17.863 45.5702Z" fill="#B6E260"/>
<path d="M56.7059 45.6462L37.4365 42.1116L45.646 54.2737L56.7059 45.6462Z" fill="#B5EA57"/>
<path d="M17.863 45.5703L39.1848 36.7527L37.4365 42.1116L17.863 45.5703Z" fill="#84D21D"/>
<path d="M39.1848 36.7527L56.7059 45.6462L37.4365 42.1116L39.1848 36.7527Z" fill="#74C41C"/>
<path d="M39.1853 36.7524L65.0299 35.6882L56.7064 45.646L39.1853 36.7524Z" fill="#5FAB1E"/>
<path d="M65.0295 35.6882L71.6047 43.7457L76.0515 36.7524L65.0295 35.6882Z" fill="#62B21C"/>
<path d="M76.0513 36.7525L86.5031 35.0422L71.6045 43.7458L76.0513 36.7525Z" fill="#357E1A"/>
<path d="M86.5034 35.0422L104.48 37.6647L81.6765 42.4916L86.5034 35.0422Z" fill="#80D41A"/>
<path d="M71.6045 43.7458L86.5031 35.0422L81.6763 42.4916L71.6045 43.7458Z" fill="#7CD81A"/>
<path d="M122.154 37.5126L108.7 33.0278L104.481 37.6647L122.154 37.5126Z" fill="#9EEA1C"/>
<path d="M86.5032 35.0422L108.699 33.0278L104.48 37.6647L86.5032 35.0422Z" fill="#A7E54E"/>
<path d="M25.1225 65.0295L21.5118 99.1215L0 91.9383L25.1225 65.0295Z" fill="#C7ED5D"/>
<path d="M35.6122 55.4898L25.1223 65.0295L17.863 45.5701L35.6122 55.4898Z" fill="#CDF489"/>
<path d="M45.6458 54.2737L35.6121 55.4899L37.4364 42.1116L45.6458 54.2737Z" fill="#BDFC59"/>
<path d="M70.2366 54.0835L56.7062 45.646L45.6462 54.2735L70.2366 54.0835Z" fill="#C2ED64"/>
<path d="M25.1226 65.0295L49.827 77.9138L21.512 99.1215L25.1226 65.0295Z" fill="#BBE25A"/>
<path d="M26.4148 126.296L49.827 104.29L21.512 99.1213L26.4148 126.296Z" fill="#AFE224"/>
<path d="M118.847 125.726L114.742 143.627L124.548 152.331L126.753 135.836L118.847 125.726Z" fill="#49821B"/>
<path d="M8.01929 122.267L21.5117 99.1213L26.4146 126.296L8.01929 122.267Z" fill="#BFEA54"/>
<path d="M44.2019 147.314L26.4147 126.297L22.842 147.504L44.2019 147.314Z" fill="#82E01E"/>
<path d="M49.8267 104.291L44.2017 147.314L26.4146 126.296L49.8267 104.291Z" fill="#80C61C"/>
<path d="M62.2933 150.963L44.2021 147.314L55.7182 166.849L62.2933 150.963Z" fill="#71AD23"/>
<path d="M76.0517 163.619L94.485 148.34L77.1159 146.706L62.2932 150.963L76.0517 163.619Z" fill="#5B911C"/>
<path d="M114.742 143.628L104.328 142.981L94.4846 148.34L99.9576 166.318L114.742 143.628Z" fill="#49821B"/>
<path d="M49.8271 104.291L66.9682 120.709L44.2021 147.314L49.8271 104.291Z" fill="#65B71D"/>
<path d="M62.2933 150.963L66.9682 120.709L44.2021 147.314L62.2933 150.963Z" fill="#58A31C"/>
<path d="M94.485 148.34L85.0973 124.32L62.2932 150.963L94.485 148.34Z" fill="#62991A"/>
<path d="M66.968 120.709L85.0972 124.32L62.2932 150.963L66.968 120.709Z" fill="#4D9B1B"/>
<path d="M49.8646 77.9138V104.29L21.5496 99.1215L49.8646 77.9138Z" fill="#93D844"/>
<path d="M35.6127 55.4897L49.8272 77.9137L25.1228 65.0295L35.6127 55.4897Z" fill="#ABED56"/>
<path d="M45.6458 54.2737L49.8266 77.9139L35.6121 55.4899L45.6458 54.2737Z" fill="#A6E83F"/>
<path d="M70.2366 54.0835L49.827 77.9137L45.6462 54.2735L70.2366 54.0835Z" fill="#ADEA39"/>
<path d="M49.865 104.29L79.0162 89.7719L49.865 77.9138V104.29Z" fill="#83C928"/>
<path d="M70.2365 54.0835L78.978 89.7718L49.8269 77.9137L70.2365 54.0835Z" fill="#93D844"/>
<path d="M95.3588 54.2358L70.2363 54.0838L81.6764 42.4917L95.3588 54.2358Z" fill="#88D21C"/>
<path d="M78.9779 89.7718L95.3588 54.2355L70.2363 54.0835L78.9779 89.7718Z" fill="#94E01E"/>
<path d="M85.0974 124.32L114.743 143.627L94.4851 148.34L85.0974 124.32Z" fill="#79A51D"/>
<path d="M133.442 107.103L118.847 125.726L141.765 125.498L133.442 107.103Z" fill="#469219"/>
<path d="M132.263 73.5049L128.539 89.7718L133.441 107.103L150.659 99.0834L132.263 73.5049Z" fill="#509B1B"/>
<path d="M119.417 54.2357L132.264 73.5051L140.131 52.2974L119.417 54.2357Z" fill="#49932A"/>
<path d="M122.154 37.5125L105.051 52.9432L119.417 54.2355L122.154 37.5125Z" fill="#76BE19"/>
<path d="M95.3591 54.2355L105.051 52.9433L104.481 37.6646L95.3591 54.2355Z" fill="#88D41B"/>
<path d="M78.978 89.7719L104.519 76.2795L95.3589 54.2356L78.978 89.7719Z" fill="#95CB1B"/>
<path d="M105.051 52.9436L104.519 76.2797L95.3591 54.2358L105.051 52.9436Z" fill="#77BE1B"/>
<path d="M119.417 54.2358L104.518 76.2797L105.05 52.9436L119.417 54.2358Z" fill="#6BB219"/>
<path d="M132.263 73.505L122.153 80.7643L104.518 76.2795L119.417 54.2356L132.263 73.505Z" fill="#62991A"/>
<path d="M133.441 107.103L104.518 76.2794L132.263 73.5049L133.441 107.103Z" fill="#6AAD1C"/>
<path d="M85.0974 124.32L133.442 107.103L118.847 125.726L105.621 128.197L85.0974 124.32Z" fill="#60A41C"/>
<path d="M66.9678 120.709L94.4847 97.6013L85.097 124.32L66.9678 120.709Z" fill="#79A51D"/>
<path d="M133.442 107.103L94.4851 97.6013L85.0974 124.32L133.442 107.103Z" fill="#62991A"/>
<path d="M104.518 76.2798L94.4846 97.6015L133.442 107.103L104.518 76.2798Z" fill="#7DAD1B"/>
<path d="M78.978 89.7722L94.4848 97.6016L104.519 76.2798L78.978 89.7722Z" fill="#74B11B"/>
<path d="M66.9678 120.709L78.9779 89.772L94.4847 97.6014L66.9678 120.709Z" fill="#71AD23"/>
<path d="M49.8269 104.291L78.978 89.772L66.9679 120.709L49.8269 104.291Z" fill="#95CB1B"/>
<path d="M77.4958 28.999L74.4932 40.6291L70.6545 36.2203L77.4958 28.999Z" fill="#9F770D"/>
<path d="M74.4932 21.436L77.4958 28.9994L70.6545 36.2207L74.4932 21.436Z" fill="#70490C"/>
<path d="M83.6146 19.0791L74.4929 21.4355L77.4955 29.0369L83.6146 19.0791Z" fill="#A5722A"/>
<path d="M83.6909 13.6826H72.6689V21.664H83.6909V13.6826Z" fill="#AB8F4B"/>
<path d="M75.5571 36.4865L82.8924 29.5312L74.4929 40.6292L75.5571 36.4865Z" fill="#752D0F"/>
<path d="M84.109 20.7515L82.8928 29.531L78.218 33.9778L84.109 20.7515Z" fill="#C49B43"/>
<path d="M109.953 24.0583L93.8005 21.2078L82.8926 29.5313L109.953 24.0583Z" fill="#6BAE1C"/>
<path d="M84.1088 20.7515L93.8006 21.2075L82.8926 29.531L84.1088 20.7515Z" fill="#AFE263"/>
<path d="M97.1835 8.20947L93.8009 21.2078L84.1091 20.7517L97.1835 8.20947Z" fill="#A5DA4C"/>
<path d="M109.954 24.0581L105.165 13.8723L93.801 21.2076L109.954 24.0581Z" fill="#5EA211"/>
<path d="M124.776 21.4357L105.165 13.8723L109.953 24.0581L124.776 21.4357Z" fill="#3D8404"/>
<path d="M137.47 11.9342L124.776 21.4359L127.665 7.7915L137.47 11.9342Z" fill="#3D8404"/>
<path d="M105.165 13.8726L127.665 7.7915L124.776 21.4359L105.165 13.8726Z" fill="#3E9900"/>
<path d="M143.133 3.68652C142.943 3.68652 137.47 11.972 137.47 11.972L127.665 7.82926L143.133 3.68652Z" fill="#4D8406"/>
<path d="M97.1836 8.20947L105.165 13.8725L93.801 21.2078L97.1836 8.20947Z" fill="#86C72B"/>
<path d="M127.665 7.79143L112.728 0.722168L105.165 13.8725L127.665 7.79143Z" fill="#8DC83F"/>
<path d="M97.1829 8.2095L112.728 0.722168L105.164 13.8725L97.1829 8.2095Z" fill="#A5DB4F"/>
<path d="M143.589 3.68666L128.577 0L127.665 7.79138L143.589 3.68666Z" fill="#8BC541"/>
<path d="M112.728 0.722128L128.577 0L127.665 7.79138L112.728 0.722128Z" fill="#65A70F"/>
<path d="M56.7058 45.646L65.0293 35.6882L71.6045 43.7456L56.7058 45.646Z" fill="#549B1A"/>
<path d="M70.4265 49.8646L70.6546 36.2202L74.4932 40.629L70.4265 49.8646Z" fill="#6E4B15"/>
<path d="M56.7058 45.6462L71.6045 43.7458L70.2362 54.0837L56.7058 45.6462Z" fill="#C1E55E"/>
<path d="M81.6764 42.4917L71.6046 43.7459L70.2363 54.0838L81.6764 42.4917Z" fill="#B0CE67"/>
<path d="M141.765 125.499L118.847 125.727L124.548 152.331L141.765 125.499Z" fill="#377B19"/>
<path d="M85.0974 124.32L118.847 125.726L114.743 143.627L85.0974 124.32Z" fill="#4D9B1B"/>
<path opacity="0.65" d="M22.9561 147.504L40.7432 162.783L55.7939 166.85L76.0895 163.619L99.9578 166.356L124.586 152.331L141.803 125.536L150.697 99.1216L149.975 71.1486L140.169 52.3353L122.192 37.5506L108.699 33.0278L86.4654 35.0422L76.0135 36.7905L64.9916 35.6883L39.109 36.7905L17.8252 45.6081L2.92652 67.804L0 91.9383L8.01943 122.268L22.9181 147.428" fill="url(#paint2_radial)"/>
<defs>
<radialGradient id="paint0_radial" cx="0" cy="0" r="1" gradientUnits="userSpaceOnUse" gradientTransform="translate(11.4851 57.2003) scale(142.177)">
<stop offset="0.00606061" stop-color="#ADEA39"/>
<stop offset="1" stop-color="#60A41C"/>
</radialGradient>
<radialGradient id="paint1_radial" cx="0" cy="0" r="1" gradientUnits="userSpaceOnUse" gradientTransform="translate(90.5392 8.86811) scale(43.7815)">
<stop stop-color="#AFE263"/>
<stop offset="1" stop-color="#4D8406"/>
</radialGradient>
<radialGradient id="paint2_radial" cx="0" cy="0" r="1" gradientUnits="userSpaceOnUse" gradientTransform="translate(24.628 45.0746) scale(193.207)">
<stop offset="0.00606061" stop-color="#AFE263"/>
<stop offset="0.2" stop-color="#8FD125"/>
<stop offset="0.5576" stop-color="#3C7818"/>
<stop offset="1" stop-color="#294008"/>
</radialGradient>
</defs>
</svg>
